<svg id="Capa_1" enable-background="new 0 0 512 512" height="512" viewBox="0 0 512 512" width="512" xmlns="http://www.w3.org/2000/svg"><g><g><path d="m30 512h376l-39-464h-319z" fill="#edbc40"/><g><path d="m83 73-23 401 311-8-36-396z" fill="#f4efe3"/><g fill="#b1d5f1"><path d="m139 138-34 2-4 35h41zm-29 28 2-20h20l2 19z"/><path d="m139 199-35 1-3 36 41-1zm-29 28 1-21 21 1 2 19z"/><path d="m138 260-34 2-3 34 41 1zm-28 27 1-19h20l3 19z"/><path d="m139 321-34 1-4 36h40zm-29 28 2-21 20 1 1 19z"/><g><path d="m178 140 113-5 2 13-115 1z"/><path d="m179 161-1 11 99-1-2-12z"/></g><g><path d="m176 199 125-4 3 14h-128z"/><path d="m178 220-2 11h101l-3-14z"/></g><g><path d="m176 259-1 13 130-4-3-12z"/><path d="m175 281h108l3 12-112 1z"/></g><g><path d="m172 323 129-3 2 11-132 3z"/><path d="m172 345-2 11 115-2-3-12z"/></g></g><path d="m104 145 14 8 11-28 15 6-23 32-20-9z" fill="#7a7a93"/><path d="m106 206 12 8 12-28 14 5-24 32-19-9z" fill="#7a7a93"/><path d="m107 266 11 8 11-24 12 7-21 27-15-9z" fill="#7a7a93"/></g><g><path d="m274 23-37 1s-12-24-28-24c-18 0-31 25-31 25l-32 1-15 65 168-6zm-65 2c-3.866 0-8-3.134-8-7s4-7 7-7c3.866 0 7 3.134 7 7s-3 7-6 7z" fill="#b1d5f1"/><path d="m164 51 88-6 9 16-100 2z" fill="#7a7a93"/></g></g><g><g fill="#844f3e"><path d="m367 352 6-8 12 2 7 8-12 3z"/><path d="m377 347 15-55 8 2-19 53z"/></g><path d="m356 512c7.272 0 17.162-5 27-5 8.982 0 15.445 5 24 5 40 0 75-66.512 75-98 0-37.641-32-75-58-75-26.52 0-23.613 15-45 15-17.109 0-21.197-18-49-18-31.225 0-66 43.053-66 70s33 106 92 106z" fill="#ff4d05"/></g></g></svg>